<?xml version="1.0" standalone="no"?>
<!DOCTYPE svg PUBLIC "-//W3C//DTD SVG 20010904//EN"
 "http://www.w3.org/TR/2001/REC-SVG-20010904/DTD/svg10.dtd">
<svg version="1.0" xmlns="http://www.w3.org/2000/svg"
 width="192.000000pt" height="192.000000pt" viewBox="0 0 192.000000 192.000000"
 preserveAspectRatio="xMidYMid meet">

<g transform="translate(0.000000,192.000000) scale(0.100000,-0.100000)"
fill="#000000" stroke="none">
<path d="M712 1833 l2 -88 3 80 c3 47 9 82 16 87 8 5 6 8 -5 8 -16 0 -18 -10
-16 -87z"/>
<path d="M1010 1861 c0 -33 -3 -68 -6 -78 -5 -15 -4 -15 5 -3 6 8 11 38 11 66
0 27 5 55 12 62 9 9 8 12 -5 12 -14 0 -17 -10 -17 -59z"/>
<path d="M1055 1908 c-10 -35 -14 -84 -6 -96 5 -8 21 -12 37 -10 26 3 29 7 32
43 4 47 22 73 22 32 0 -17 5 -27 15 -27 9 0 15 9 15 25 0 25 13 31 44 19 12
-5 14 -16 9 -50 -3 -28 -2 -44 5 -44 7 0 23 93 18 107 -1 0 -33 4 -73 7 -60 5
-74 4 -89 -11 -17 -17 -18 -17 -11 0 3 9 2 17 -4 17 -5 0 -11 -6 -14 -12z m32
-84 c-3 -3 -12 -4 -19 -1 -8 3 -5 6 6 6 11 1 17 -2 13 -5z"/>
<path d="M1473 1893 c-7 -15 -13 -48 -13 -74 0 -25 -5 -60 -11 -78 -11 -31
-12 -31 -63 -25 -76 8 -83 12 -60 28 24 18 13 31 -14 17 -12 -6 -22 -7 -29 0
-11 11 -207 31 -228 22 -32 -12 -11 -38 30 -39 22 -1 42 -3 45 -4 19 -8 96 -6
102 4 5 7 12 4 22 -9 13 -19 12 -21 -22 -31 l-37 -11 70 -7 c39 -4 81 -9 95
-11 14 -2 41 -4 60 -4 26 -1 31 -4 20 -11 -8 -5 -24 -7 -36 -4 -12 3 -36 -1
-55 -9 -19 -7 -59 -20 -89 -27 -30 -7 -67 -21 -82 -31 -34 -25 -58 -25 -32 -1
10 10 34 28 52 40 17 13 32 28 32 34 0 12 -85 6 -180 -11 -71 -14 -145 -9
-206 13 -27 9 -47 10 -64 4 -18 -7 -26 -6 -29 4 -8 24 -104 118 -121 118 -25
0 -40 -43 -40 -113 0 -35 -5 -68 -11 -74 -6 -6 -11 -64 -12 -139 l-2 -129 31
-31 c24 -23 31 -37 27 -56 -12 -65 50 -103 158 -99 41 2 45 37 7 57 -29 15
-31 15 -24 -2 5 -13 -3 -10 -24 11 -20 19 -26 31 -18 34 6 2 14 -1 16 -7 2 -7
8 -12 13 -12 6 0 7 5 4 10 -4 6 12 1 34 -10 38 -20 41 -21 66 -4 14 9 24 23
21 30 -6 16 20 19 29 4 3 -5 13 -10 21 -10 11 0 13 7 8 26 -4 15 -2 29 5 33 6
4 12 44 13 98 3 96 12 106 39 41 11 -27 14 -29 20 -12 7 18 8 18 8 -1 1 -11 6
-27 12 -35 8 -12 10 -8 7 17 -6 48 10 29 17 -21 5 -30 2 -52 -9 -73 -23 -45
-2 -59 34 -23 24 24 26 40 4 40 -9 0 -12 5 -8 11 4 7 7 25 6 41 -1 24 2 27 14
17 11 -9 14 -9 14 2 1 10 5 8 15 -5 10 -13 11 -24 5 -37 -6 -10 -10 -27 -10
-39 0 -13 -13 -28 -35 -41 -19 -12 -35 -23 -35 -26 0 -2 5 -1 10 2 9 5 12 -3
12 -25 0 -3 -3 -15 -7 -27 -6 -22 -4 -23 47 -23 29 0 59 -4 67 -9 9 -6 -8 -7
-47 -4 -53 5 -62 3 -62 -11 0 -9 11 -21 25 -26 35 -13 31 -19 -10 -15 -20 2
-46 -2 -58 -8 -29 -15 -151 -14 -170 1 -18 15 -71 1 -75 -20 -2 -11 9 -21 32
-29 19 -7 38 -19 41 -27 6 -16 -39 -55 -66 -57 -24 -2 -31 4 -58 47 -12 20
-45 58 -74 84 -28 25 -61 59 -73 75 l-21 29 -58 -36 c-43 -25 -66 -33 -88 -30
-38 6 -52 27 -30 44 9 6 13 12 8 12 -5 0 -4 5 2 11 6 6 9 18 6 25 -3 8 2 17
11 20 11 4 14 13 11 24 -4 12 3 28 19 43 15 15 21 27 14 29 -8 3 -7 10 1 27 7
12 10 29 7 38 -5 11 -2 13 10 9 14 -6 15 -4 4 10 -11 12 -11 20 -3 34 9 13 9
21 0 30 -8 9 -9 11 -1 7 11 -7 29 19 25 36 0 4 4 17 10 29 10 18 9 20 -7 14
-17 -5 -17 -5 -3 6 9 7 15 26 15 42 -1 15 4 31 12 33 10 4 9 9 -4 24 -9 10
-13 22 -10 28 4 5 -3 15 -14 21 -11 6 -20 8 -20 5 0 -3 -10 0 -22 7 -13 6 -48
14 -78 16 -30 2 -72 7 -92 12 l-37 8 -5 -52 c-3 -28 -5 -223 -4 -433 2 -303 5
-383 15 -383 18 0 27 44 14 68 -6 12 -11 38 -11 59 0 37 0 37 16 15 9 -13 13
-29 11 -36 -8 -21 21 -56 40 -49 15 6 14 7 -3 14 -17 7 -17 8 -1 8 10 1 15 5
12 11 -3 6 1 7 9 4 9 -3 16 -11 16 -18 0 -6 3 -21 6 -34 6 -21 4 -22 -22 -17
l-29 7 25 -14 c60 -34 111 -73 101 -76 -6 -2 -2 -12 11 -24 21 -18 21 -19 3
-13 -11 4 -36 12 -55 17 -19 5 -44 18 -55 28 -27 25 -75 31 -75 10 0 -5 13
-10 29 -10 17 0 32 -4 35 -9 4 -5 35 -23 71 -40 69 -32 90 -51 29 -25 -19 8
-44 12 -55 9 -11 -4 -19 -2 -19 5 0 8 -8 10 -22 7 -12 -4 -28 -1 -35 5 -9 7
-13 7 -13 -1 0 -8 -9 -10 -23 -7 -12 3 -16 3 -9 0 6 -3 12 -12 12 -20 0 -11
12 -13 59 -9 43 4 70 1 98 -11 30 -12 34 -17 21 -23 -13 -4 -15 -10 -8 -21 5
-8 10 -26 10 -41 0 -30 17 -49 43 -49 10 0 15 -5 12 -10 -5 -9 24 -15 49 -11
5 1 16 -5 25 -13 9 -8 25 -15 36 -15 11 0 29 -1 40 -4 11 -2 22 0 25 4 3 4 22
2 43 -5 39 -13 58 -26 39 -26 -7 0 -12 -4 -12 -10 0 -5 13 -10 29 -10 17 0 33
5 36 10 10 16 65 12 71 -5 6 -15 -22 -113 -36 -129 -5 -5 -4 -19 1 -33 5 -13
8 -27 8 -31 -1 -4 -1 -14 1 -22 1 -11 4 -9 9 5 4 11 21 23 37 26 l29 7 -27 1
c-15 0 -29 5 -33 10 -9 16 15 103 41 148 20 35 28 41 42 34 35 -19 243 -60
229 -45 -4 4 -20 10 -35 12 -14 2 -31 7 -37 11 -5 5 -25 12 -44 16 -31 7 -33
9 -27 39 6 31 6 31 -9 9 -15 -22 -63 -34 -50 -13 3 5 0 7 -7 5 -8 -3 -34 1
-58 9 -62 20 -161 55 -185 66 -11 5 -44 19 -74 31 -47 20 -51 24 -32 30 31 12
25 19 -8 9 -21 -6 -35 -4 -48 7 -10 8 -12 11 -4 7 9 -5 12 -3 7 5 -4 6 -12 9
-17 6 -5 -4 -19 1 -31 9 -18 13 -19 16 -5 16 26 0 20 19 -7 26 -26 6 -62 51
-51 62 9 9 36 -28 29 -39 -3 -5 1 -9 10 -9 8 0 17 6 19 13 3 7 6 4 6 -7 1 -15
4 -16 16 -6 19 16 20 41 1 34 -18 -7 -112 50 -108 66 1 7 -2 18 -8 25 -6 7 -8
20 -4 29 3 9 1 23 -6 31 -11 13 -10 14 4 9 10 -4 16 -1 16 7 1 9 9 4 21 -10
11 -13 22 -21 25 -18 4 3 -5 17 -19 31 -24 24 -24 25 -7 41 11 10 16 24 13 33
-5 11 -3 13 7 7 8 -5 11 -4 6 3 -8 13 14 52 30 52 6 0 36 -14 67 -31 59 -32
125 -98 150 -152 9 -18 36 -48 61 -66 25 -19 43 -38 40 -42 -3 -5 1 -7 8 -4
14 5 183 -16 278 -36 30 -6 72 -8 95 -5 22 3 67 8 100 12 33 3 66 11 74 17 7
6 18 12 25 13 40 7 122 31 186 54 l75 27 0 451 c0 248 -3 448 -7 446 -4 -3 -5
9 -2 26 l7 30 -94 0 c-92 0 -94 -1 -106 -27z m157 -74 c0 -28 -15 -23 -18 7
-1 14 2 23 8 19 6 -3 10 -15 10 -26z m-13 -51 c-3 -8 -6 -5 -6 6 -1 11 2 17 5
13 3 -3 4 -12 1 -19z m20 -20 c-3 -8 -6 -5 -6 6 -1 11 2 17 5 13 3 -3 4 -12 1
-19z m-349 -23 c-3 -3 -9 2 -12 12 -6 14 -5 15 5 6 7 -7 10 -15 7 -18z m313
-27 c-9 -31 -9 -31 -10 -6 -1 16 -8 28 -18 31 -14 4 -12 5 5 6 12 0 22 7 23
14 0 8 2 9 5 0 3 -6 1 -26 -5 -45z m26 10 c-3 -8 -6 -5 -6 6 -1 11 2 17 5 13
3 -3 4 -12 1 -19z m-957 -42 c14 -18 14 -19 -8 -7 -12 7 -20 17 -16 22 3 6 7
9 8 7 1 -2 8 -12 16 -22z m941 -29 c-6 -16 -18 -27 -28 -26 -17 1 -17 2 -1 6
11 3 20 19 25 41 4 20 8 30 10 21 2 -8 -1 -28 -6 -42z m-117 14 c4 -5 -3 -7
-14 -4 -23 6 -26 13 -6 13 8 0 17 -4 20 -9z m96 -8 c0 -9 -10 -11 -32 -6 -52
9 -59 24 -10 21 25 -2 42 -8 42 -15z m-895 -21 c-3 -3 -11 0 -18 7 -9 10 -8
11 6 5 10 -3 15 -9 12 -12z m445 -16 c0 -2 -8 -10 -17 -17 -16 -13 -17 -12 -4
4 13 16 21 21 21 13z m-509 -38 c-4 -13 -6 -29 -3 -37 3 -8 0 -11 -7 -7 -15 9
-14 39 1 54 17 17 19 15 9 -10z m74 -8 c-3 -5 -14 -10 -23 -10 -15 0 -15 2 -2
10 20 13 33 13 25 0z m410 -16 c-8 -9 -15 -22 -15 -30 0 -8 -7 -14 -15 -14
-13 0 -14 4 -4 23 18 34 30 47 40 41 5 -3 2 -12 -6 -20z m-402 -42 c-18 -18
-60 -23 -56 -6 1 5 12 12 25 16 41 11 49 9 31 -10z m132 -131 c3 -5 0 -13 -6
-17 -8 -5 -9 -3 -4 6 5 9 2 10 -13 6 -11 -4 -23 -2 -27 4 -4 6 4 10 19 10 14
0 27 -4 31 -9z m54 -20 c10 -6 10 -10 1 -16 -7 -4 -19 0 -28 9 -14 13 -14 16
-2 16 8 0 21 -4 29 -9z m-99 -25 c0 -5 7 -18 17 -28 27 -30 -1 -20 -32 11 -26
28 -26 30 -6 28 11 -1 21 -6 21 -11z m60 -29 c13 -5 13 -6 0 -6 -18 -1 -40 18
-40 34 0 5 6 3 13 -6 7 -9 19 -18 27 -22z m-131 -24 c3 -2 -6 -2 -19 0 -13 2
-26 9 -28 16 -3 10 0 10 19 1 13 -7 26 -14 28 -17z m68 -99 c-3 -3 -12 -4 -19
-1 -8 3 -5 6 6 6 11 1 17 -2 13 -5z m423 -59 c0 -2 -18 4 -39 13 -22 9 -37 20
-35 24 4 6 74 -29 74 -37z m59 -31 c14 -12 -19 -1 -35 12 -18 14 -18 14 6 3
14 -6 27 -13 29 -15z m-320 -9 c-9 -9 -23 -12 -38 -8 -23 6 -22 7 10 18 40 13
48 10 28 -10z m-333 -365 c49 -23 98 -45 109 -50 29 -13 146 -57 173 -65 24
-7 30 -25 8 -25 -28 0 -369 90 -382 101 -8 6 -14 20 -14 29 0 18 10 50 15 50
1 0 42 -18 91 -40z"/>
<path d="M1270 1900 c20 -13 40 -13 40 0 0 6 -12 10 -27 10 -22 0 -25 -2 -13
-10z"/>
<path d="M1326 1901 c-3 -5 1 -12 10 -15 12 -5 15 -14 10 -36 -5 -29 -4 -30
29 -30 19 0 35 4 35 9 0 5 3 16 6 25 4 11 1 16 -10 16 -9 0 -24 9 -33 20 -18
21 -38 26 -47 11z"/>
<path d="M1180 1870 c0 -11 7 -20 15 -20 8 0 15 9 15 20 0 11 -7 20 -15 20 -8
0 -15 -9 -15 -20z"/>
<path d="M1260 1866 c0 -17 5 -26 16 -26 10 0 14 7 12 22 -5 32 -28 35 -28 4z"/>
<path d="M851 1864 c0 -11 3 -14 6 -6 3 7 2 16 -1 19 -3 4 -6 -2 -5 -13z"/>
<path d="M1307 1866 c-6 -15 1 -26 15 -26 4 0 8 9 8 20 0 23 -15 27 -23 6z"/>
<path d="M1140 1821 c0 -12 5 -21 10 -21 6 0 10 6 10 14 0 8 -4 18 -10 21 -5
3 -10 -3 -10 -14z"/>
<path d="M1172 1818 c6 -18 25 -20 31 -3 5 10 0 15 -14 15 -12 0 -19 -5 -17
-12z"/>
<path d="M1255 1820 c-11 -17 5 -32 21 -19 7 6 11 15 8 20 -7 12 -21 11 -29
-1z"/>
<path d="M1300 1804 c0 -9 5 -14 12 -12 18 6 21 28 4 28 -9 0 -16 -7 -16 -16z"/>
<path d="M825 1790 c4 -6 10 -8 15 -5 5 3 11 -5 13 -17 4 -20 4 -19 6 5 1 21
-3 27 -20 27 -11 0 -17 -5 -14 -10z"/>
<path d="M1000 1719 c0 -5 11 -9 25 -9 14 0 25 2 25 4 0 2 -11 6 -25 8 -14 3
-25 1 -25 -3z"/>
<path d="M953 1148 c15 -23 48 -31 54 -13 3 10 -41 35 -60 35 -5 0 -3 -10 6
-22z"/>
<path d="M766 1132 c-2 -4 11 -6 30 -4 19 2 34 6 34 8 0 8 -59 4 -64 -4z"/>
<path d="M510 1095 l-25 -14 28 -1 c15 0 27 6 28 13 0 6 4 2 9 -10 10 -25 25
-30 36 -11 4 6 3 8 -3 5 -6 -4 -13 2 -16 13 -6 23 -22 25 -57 5z"/>
<path d="M686 995 c4 -8 11 -15 16 -15 6 0 5 6 -2 15 -7 8 -14 15 -16 15 -2 0
-1 -7 2 -15z"/>
<path d="M445 940 c-3 -5 1 -10 10 -10 9 0 13 5 10 10 -3 6 -8 10 -10 10 -2 0
-7 -4 -10 -10z"/>
<path d="M606 869 c24 -27 72 -52 87 -45 9 3 9 5 0 5 -7 1 -9 10 -5 24 5 21 5
21 -13 4 -17 -18 -19 -17 -44 7 -32 31 -52 35 -25 5z"/>
<path d="M710 880 c-8 -5 -10 -10 -5 -10 6 0 17 5 25 10 8 5 11 10 5 10 -5 0
-17 -5 -25 -10z"/>
<path d="M1605 870 c3 -5 12 -7 20 -3 21 7 19 13 -6 13 -11 0 -18 -4 -14 -10z"/>
<path d="M1657 855 c-4 -8 -2 -17 3 -20 6 -4 10 3 10 14 0 25 -6 27 -13 6z"/>
<path d="M581 833 c-1 -13 4 -23 10 -23 6 0 9 -6 6 -14 -3 -8 1 -17 9 -20 10
-4 13 2 11 24 -4 32 -17 53 -18 29 0 -8 -4 -6 -9 6 -8 19 -9 19 -9 -2z"/>
<path d="M1468 827 c-7 -8 -19 -12 -26 -9 -21 7 -13 -14 11 -26 28 -14 136
-34 148 -26 5 3 17 1 26 -4 23 -12 43 -5 43 16 0 15 -2 15 -10 2 -8 -13 -10
-12 -10 3 0 9 5 17 11 17 5 0 8 4 5 9 -7 10 -56 12 -56 1 0 -4 -11 -5 -25 -2
-14 2 -32 -1 -40 -8 -12 -10 -16 -8 -25 14 -10 28 -31 33 -52 13z m36 -29
c-10 -16 -22 -7 -17 13 4 15 8 17 14 8 4 -7 5 -17 3 -21z m90 -6 c3 -5 -1 -9
-9 -9 -8 0 -15 4 -15 9 0 4 4 8 9 8 6 0 12 -4 15 -8z"/>
<path d="M1600 836 c0 -2 9 -6 20 -9 11 -3 18 -1 14 4 -5 9 -34 13 -34 5z"/>
<path d="M710 819 c0 -5 9 -9 20 -9 11 0 20 2 20 4 0 2 -9 6 -20 9 -11 3 -20
1 -20 -4z"/>
<path d="M1345 820 l-30 -8 32 -1 c17 0 35 4 38 9 7 11 3 11 -40 0z"/>
<path d="M252 790 c0 -14 2 -19 5 -12 2 6 2 18 0 25 -3 6 -5 1 -5 -13z"/>
<path d="M270 773 c0 -5 4 -15 10 -23 6 -9 5 -17 -3 -22 -8 -5 -6 -11 8 -22
18 -13 18 -15 3 -21 -9 -4 -21 -4 -26 -1 -10 6 -22 -97 -15 -125 6 -21 51 -43
82 -40 17 2 34 -9 60 -37 20 -22 43 -42 51 -45 11 -4 10 -6 -4 -6 -11 -1 -27
6 -37 15 -13 12 -22 13 -37 5 -16 -8 -24 -8 -34 2 -13 14 -19 17 -50 25 -21 5
-23 18 -5 25 7 3 5 6 -5 6 -11 1 -18 -6 -18 -18 0 -11 8 -22 18 -24 16 -4 16
-5 0 -6 -10 0 -19 -4 -19 -8 -1 -5 -3 -106 -5 -225 -3 -200 -2 -218 14 -218
32 1 62 24 52 40 -8 13 -10 13 -10 1 0 -12 -3 -12 -12 -3 -9 9 -7 16 9 31 19
18 22 18 36 4 15 -15 15 -14 10 5 -5 20 -1 24 25 21 4 0 6 -7 4 -16 -2 -9 1
-12 8 -8 9 5 10 1 5 -14 -3 -11 -2 -21 3 -21 16 0 61 40 67 60 4 11 13 20 21
20 8 0 12 5 9 10 -4 6 -1 17 5 25 9 11 17 12 32 4 14 -8 17 -14 9 -23 -6 -7
-8 -15 -5 -19 11 -11 34 5 48 35 12 24 13 28 2 19 -10 -8 -16 -9 -21 -2 -3 6
-16 16 -28 23 -20 10 -21 10 -8 -6 12 -14 12 -16 -4 -10 -12 5 -27 -4 -51 -30
-19 -20 -34 -41 -34 -47 0 -5 -5 -9 -11 -9 -6 0 0 14 12 32 16 21 19 33 11 36
-7 2 -12 11 -12 19 0 13 3 13 16 2 14 -11 15 -10 12 7 -2 13 3 20 19 22 12 2
27 11 35 19 11 15 11 16 -5 10 -15 -6 -16 -4 -6 16 7 12 36 47 65 77 29 30 75
79 103 108 28 28 55 52 61 52 5 0 10 5 10 10 0 28 -48 5 -102 -50 -62 -63 -77
-70 -99 -44 -11 14 -10 19 10 35 13 11 17 19 10 19 -7 0 -23 -10 -36 -21 l-22
-22 -10 27 c-6 14 -13 26 -16 26 -4 0 -4 -4 -1 -9 3 -5 0 -11 -8 -14 -11 -4
-13 2 -9 25 5 32 0 33 -49 13 -11 -4 -20 0 -28 14 -6 13 -7 21 -1 21 6 0 22
11 37 25 30 27 21 34 -13 10 -13 -9 -24 -11 -28 -6 -3 6 -12 8 -19 5 -7 -3
-19 2 -26 11 -9 11 -9 15 -1 15 7 0 9 5 5 12 -5 7 -2 9 8 6 18 -7 29 -1 50 33
16 26 16 27 -1 22 -24 -6 -36 23 -14 35 14 8 14 10 -1 15 -9 4 -16 13 -16 21
0 14 -36 46 -51 46 -4 0 -10 -8 -12 -17 -4 -17 -5 -17 -6 0 -1 16 -21 26 -21
10z m8 -143 c-7 -11 -15 -15 -17 -9 -2 6 3 15 10 20 20 12 21 11 7 -11z m214
-238 c-3 -8 1 -18 9 -24 10 -7 3 -8 -21 -3 -19 4 -45 8 -57 8 -38 2 -25 27 22
42 33 12 56 0 47 -23z m-78 -224 c-5 -8 -44 -6 -44 2 0 3 5 11 11 17 9 9 15 8
24 0 7 -7 11 -15 9 -19z"/>
<path d="M1000 754 c0 -2 15 -11 33 -20 27 -14 30 -15 19 -2 -11 14 -52 31
-52 22z"/>
<path d="M1235 680 c3 -5 8 -10 11 -10 2 0 4 5 4 10 0 6 -5 10 -11 10 -5 0 -7
-4 -4 -10z"/>
<path d="M1060 601 c0 -5 5 -13 10 -16 6 -3 10 -2 10 4 0 5 -4 13 -10 16 -5 3
-10 2 -10 -4z"/>
<path d="M358 583 c7 -3 16 -2 19 1 4 3 -2 6 -13 5 -11 0 -14 -3 -6 -6z"/>
<path d="M505 570 c-3 -6 1 -7 9 -4 18 7 21 14 7 14 -6 0 -13 -4 -16 -10z"/>
<path d="M1341 524 c0 -11 3 -14 6 -6 3 7 2 16 -1 19 -3 4 -6 -2 -5 -13z"/>
<path d="M1250 510 c0 -8 -10 -9 -29 -5 -24 5 -30 2 -35 -13 -6 -19 -10 -19
-64 -7 -31 8 -59 11 -62 9 -9 -9 24 -23 72 -29 47 -7 56 -17 39 -44 -10 -15
-9 -15 -116 57 -55 36 -61 38 -68 18 -4 -9 -1 -13 7 -10 7 3 21 -5 32 -17 17
-20 17 -22 2 -16 -10 4 -18 2 -18 -3 0 -6 4 -10 10 -10 8 0 63 -84 66 -100 0
-3 4 -14 9 -25 49 -121 86 -166 137 -164 31 2 31 2 5 6 -16 3 -31 12 -34 21
-3 9 -14 25 -24 34 -13 13 -16 27 -12 60 3 24 9 44 13 46 5 2 5 12 2 24 -3 14
-1 19 6 14 7 -4 12 -4 13 1 0 4 3 17 5 28 3 11 7 29 8 39 1 11 12 24 24 29 12
6 22 14 22 19 0 9 64 11 97 2 20 -6 21 -8 8 -52 -22 -78 -26 -112 -13 -112 6
0 19 -7 29 -16 16 -15 19 -10 45 70 16 47 33 86 40 86 6 0 56 -9 109 -20 53
-11 99 -20 100 -20 2 0 2 8 0 18 -2 9 -4 19 -4 22 -1 3 -6 -2 -11 -10 -5 -8
-10 -10 -10 -5 0 6 -20 9 -47 6 -42 -3 -46 -2 -34 12 7 9 11 22 8 29 -4 9 -6
8 -6 -3 -1 -13 -9 -15 -44 -9 -23 3 -49 10 -56 15 -9 5 -12 4 -8 -2 4 -6 0
-13 -8 -17 -11 -4 -15 2 -16 22 l-1 27 -8 -30 c-6 -25 -8 -27 -15 -12 -4 10
-14 16 -22 13 -13 -5 -113 16 -133 29 -6 3 -10 1 -10 -5z m131 -177 c-8 -15
-10 -15 -11 -2 0 17 10 32 18 25 2 -3 -1 -13 -7 -23z"/>
<path d="M611 496 c-9 -11 -8 -15 5 -20 24 -9 28 -7 15 7 -6 8 -8 17 -4 20 3
4 4 7 1 7 -3 0 -11 -6 -17 -14z"/>
<path d="M495 480 c3 -5 10 -10 16 -10 5 0 9 5 9 10 0 6 -7 10 -16 10 -8 0
-12 -4 -9 -10z"/>
<path d="M965 450 c3 -5 8 -10 11 -10 2 0 4 5 4 10 0 6 -5 10 -11 10 -5 0 -7
-4 -4 -10z"/>
<path d="M1215 310 c3 -5 8 -10 11 -10 2 0 4 5 4 10 0 6 -5 10 -11 10 -5 0 -7
-4 -4 -10z"/>
<path d="M903 303 c-16 -6 -17 -33 -2 -33 5 0 7 5 4 10 -3 6 0 10 9 10 8 0 17
-6 19 -12 3 -7 6 -3 6 10 1 21 -10 26 -36 15z"/>
<path d="M612 246 c-20 -19 -35 -36 -32 -39 3 -3 23 13 45 34 49 48 39 52 -13
5z"/>
<path d="M667 262 c-25 -27 -21 -35 8 -16 25 16 33 34 17 34 -5 0 -16 -8 -25
-18z"/>
<path d="M870 200 c0 -16 11 -46 25 -66 22 -32 32 -32 25 1 -1 6 -3 15 -4 20
-3 15 -36 75 -41 75 -3 0 -5 -13 -5 -30z"/>
<path d="M940 186 c0 -2 7 -6 15 -10 8 -3 15 -1 15 4 0 6 -7 10 -15 10 -8 0
-15 -2 -15 -4z"/>
<path d="M648 148 c-34 -36 -98 -128 -98 -140 0 -13 75 -9 91 4 28 23 50 69
58 119 10 60 -6 65 -51 17z"/>
<path d="M1164 93 c10 -13 23 -20 29 -16 7 4 6 8 -3 11 -8 3 -22 10 -30 16 -8
6 -7 1 4 -11z"/>
<path d="M1384 45 c-18 -39 -19 -43 -3 -42 9 1 15 6 12 13 -2 6 6 15 19 19 18
6 19 8 7 12 -11 2 -15 11 -12 24 9 31 -1 21 -23 -26z"/>
<path d="M884 53 c-10 -15 -23 -35 -28 -43 -6 -8 1 -5 16 5 14 11 24 22 22 24
-2 2 1 10 8 18 6 7 8 16 5 19 -3 3 -13 -7 -23 -23z"/>
<path d="M1116 61 c-3 -5 5 -8 19 -8 14 0 22 3 19 8 -3 5 -11 9 -19 9 -8 0
-16 -4 -19 -9z"/>
</g>
</svg>
